<?xml version="1.0" standalone="no"?>
<!DOCTYPE svg PUBLIC "-//W3C//DTD SVG 20010904//EN"
 "http://www.w3.org/TR/2001/REC-SVG-20010904/DTD/svg10.dtd">

<svg version="1.0" xmlns="http://www.w3.org/2000/svg"
 width="40pt" height="40pt" viewBox="0 0 512.000000 512.000000"
 preserveAspectRatio="xMidYMid meet" alt="Logo">

<g transform="translate(0.000000,512.000000) scale(0.100000,-0.100000)"
fill="#FFFFFF" stroke="none">
<path d="M2128 4689 l-418 -209 0 -105 0 -105 105 0 105 0 0 -430 0 -430 -105
0 -105 0 0 -210 0 -210 105 0 c58 0 105 -2 105 -3 0 -2 -27 -177 -59 -388 -33
-211 -59 -384 -58 -385 1 -1 305 173 675 387 l673 389 130 0 129 0 0 210 0
210 -105 0 -105 0 0 430 0 430 105 0 105 0 0 105 0 105 -420 210 c-231 115
-426 210 -432 209 -7 0 -201 -94 -430 -210z m642 -849 l0 -430 -210 0 -210 0
0 430 0 430 210 0 210 0 0 -430z"/>
<path d="M2501 2121 c-419 -241 -769 -445 -775 -452 -12 -13 -143 -845 -135
-853 2 -3 405 227 894 509 690 399 890 518 888 532 -4 31 -104 688 -106 695
-1 4 -346 -190 -766 -431z"/>
<path d="M2467 823 c-910 -526 -966 -560 -967 -585 l0 -28 634 0 635 0 390
226 c264 152 391 231 391 242 1 34 -104 702 -110 702 -3 0 -441 -251 -973
-557z"/>
</g>

</svg>
